<?xml version="1.0" standalone="no"?>
<!DOCTYPE svg PUBLIC "-//W3C//DTD SVG 1.0//EN" "http://www.w3.org/TR/2001/REC-SVG-20010904/DTD/svg10.dtd">
<svg width="632" height="600" viewBox="0 0 632 600" xmlns="http://www.w3.org/2000/svg" xmlns:svg="http://www.w3.org/2000/svg">
<title>A form of the Triquetra symbol or trefoil knot with three 120 degree circular arcs grouped around an equilateral triangle (solid version)</title>
<g fill="none" stroke="rgb(255,255,255)" stroke-width="42" transform="translate(0,600) scale(1,-1)">
<path stroke-width="70" d="M339.457,126.964
C311.67,78.8354,260.316,49.1865,204.742,49.1865
C118.831,49.1865,49.1865,118.831,49.1865,204.742
C49.1865,290.653,118.831,360.297,204.742,360.297
L424.731,360.297
C510.642,360.297,580.286,290.653,580.286,204.742
C580.286,118.831,510.642,49.1865,424.731,49.1865
C369.156,49.1865,317.803,78.8354,290.016,126.964
L180.021,317.48
C166.369,341.127,159.181,367.952,159.181,395.258
C159.181,481.169,228.825,550.813,314.736,550.813
C400.647,550.813,470.292,481.169,470.292,395.258
C470.292,367.952,463.104,341.127,449.451,317.48
L339.457,126.964Z"/>
<path stroke="rgb(0,0,0)" d="M339.457,126.964
C311.67,78.8354,260.316,49.1865,204.742,49.1865
C118.831,49.1865,49.1865,118.831,49.1865,204.742
C49.1865,290.653,118.831,360.297,204.742,360.297
L424.731,360.297
C510.642,360.297,580.286,290.653,580.286,204.742
C580.286,118.831,510.642,49.1865,424.731,49.1865
C369.156,49.1865,317.803,78.8354,290.016,126.964
L180.021,317.48
C166.369,341.127,159.181,367.952,159.181,395.258
C159.181,481.169,228.825,550.813,314.736,550.813
C400.647,550.813,470.292,481.169,470.292,395.258
C470.292,367.952,463.104,341.127,449.451,317.48
L339.457,126.964Z"/>
<path stroke-width="70" d="M338.079,124.625
C310.453,78.6475,261.088,50.1462,207.457,49.2102
M427.445,360.274
C481.076,359.338,530.442,330.836,558.068,284.859
M178.685,319.843
C166.338,342.116,159.649,367.081,159.205,392.543"/>
<path stroke="rgb(0,0,0)" d="M339.457,126.964
C311.67,78.8354,260.316,49.1865,204.742,49.1865
M424.731,360.297
C480.305,360.297,531.658,330.648,559.446,282.52
M180.021,317.48
C166.369,341.127,159.181,367.952,159.181,395.258"/>
</g>
</svg>
